<svg xmlns="http://www.w3.org/2000/svg" xmlns:xlink="http://www.w3.org/1999/xlink" id="OBJECTS" x="0px" y="0px" viewBox="0 0 500 500" style="enable-background:new 0 0 500 500;" xml:space="preserve">
<style type="text/css">
	.st0{opacity:0.1;clip-path:url(#SVGID_2_);fill:#E7E6EB;}
	.st1{clip-path:url(#SVGID_2_);fill:url(#SVGID_3_);}
	.st2{clip-path:url(#SVGID_2_);}
	.st3{fill:#C2BDFF;}
	.st4{fill:#8A77E5;}
	.st5{fill:#A195F9;}
	.st6{opacity:0.25;fill:#FFFFFF;}
	.st7{opacity:0.25;}
	.st8{opacity:0.45;}
	.st9{fill:url(#SVGID_4_);}
	.st10{fill:#0D003D;}
	.st11{fill:#7366D3;}
	.st12{fill:#FF9700;}
	.st13{fill:url(#SVGID_5_);}
	.st14{fill:url(#SVGID_6_);}
	.st15{fill:#FFAA00;}
	.st16{fill:url(#SVGID_7_);}
	.st17{fill:#34288C;}
	.st18{fill:#200E75;}
	.st19{fill:none;stroke:#C14AFF;stroke-width:1.4833;stroke-linecap:round;stroke-linejoin:round;stroke-miterlimit:10;}
	.st20{clip-path:url(#SVGID_2_);fill:url(#SVGID_8_);}
	.st21{clip-path:url(#SVGID_2_);fill:url(#SVGID_9_);}
	.st22{fill:url(#SVGID_10_);}
	.st23{fill:#6C5ED1;}
	.st24{fill:url(#SVGID_11_);}
	
		.st25{opacity:0.15;fill:none;stroke:#000000;stroke-width:4.4498;stroke-linecap:round;stroke-linejoin:round;stroke-miterlimit:10;}
	.st26{fill:url(#SVGID_12_);}
	.st27{fill:url(#SVGID_13_);}
</style>
<g>
	<defs>
		<path id="SVGID_1_" d="M316.64,55.57c0,0-81.05-3.52-157.84,44.41C82.02,147.92,64.5,218.58,81.72,279.82    c17.22,61.25,138.8,162.49,241.55,150.64c102.75-11.85,116.15-139.86,88.66-210.15S400.94,59.1,316.64,55.57z"></path>
	</defs>
	<clipPath id="SVGID_2_">
		<use xlink:href="#SVGID_1_" style="overflow:visible;"></use>
	</clipPath>
	<path class="st0" d="M233.36,44.14c0,0-78.06,29.54-131.21,106.01c-53.15,76.46-41.07,150.38,0.06,201.3   c41.12,50.92,197.14,97.33,289.48,44.45c92.34-52.88,53.09-179.34-1.41-234.64C335.77,105.95,314.49,13.28,233.36,44.14z"></path>
	<linearGradient id="SVGID_3_" gradientUnits="userSpaceOnUse" x1="243.6432" y1="52.6928" x2="251.2359" y2="304.3385">
		<stop offset="0" style="stop-color:#2B2451"></stop>
		<stop offset="0.9944" style="stop-color:#090628"></stop>
	</linearGradient>
	<path class="st1" d="M422.89,315.97c-6.57,55.19-35.93,107.15-99.61,114.49c-91.61,10.57-198.19-68.77-232.42-129.5   c-4.17-7.39-7.26-14.49-9.13-21.14C64.5,218.58,82.02,147.92,158.8,99.98c76.79-47.93,157.84-44.41,157.84-44.41   c12.03,0.51,22.02,2.79,30.37,6.55c40.13,18.04,42.5,70.03,53.97,120.98c2.84,12.65,6.25,25.24,10.94,37.22   C422.39,247.04,426.92,282.12,422.89,315.97z"></path>
	<g class="st2">
		<polygon class="st3" points="64.05,224.58 123.53,200.14 170.58,200.14 113.75,229.49   "></polygon>
		<polygon class="st4" points="64.05,224.58 113.75,229.49 125.38,333.98 100,336.97   "></polygon>
		<polygon class="st5" points="113.75,229.49 170.58,200.14 178.85,286.66 123.79,330.45   "></polygon>
		<path class="st6" d="M93.11,244.94c1.58,6.53-1.34,12.83-6.52,14.09c-5.18,1.25-10.66-3.03-12.23-9.56    c-1.58-6.53,1.34-12.83,6.52-14.09C86.06,234.14,91.53,238.41,93.11,244.94z"></path>
		<polygon class="st6" points="111.29,244.75 97.22,244.75 96.62,239.9 110.68,239.9   "></polygon>
		<polygon class="st6" points="112.16,255.57 98.1,255.57 97.49,250.72 111.56,250.72   "></polygon>
		<polygon class="st7" points="113.79,286.66 77.23,286.66 76.65,281.81 113.21,281.81   "></polygon>
		<polygon class="st7" points="115.19,298.29 86.86,298.29 86.28,293.45 114.61,293.45   "></polygon>
		<polygon class="st7" points="116.59,309.92 88.26,309.92 87.68,305.08 116,305.08   "></polygon>
		<polygon class="st7" points="117.99,321.56 89.66,321.56 89.07,316.71 117.4,316.71   "></polygon>
	</g>
	<g class="st2">
		<g>
			<rect x="173.84" y="118.92" class="st7" width="74.08" height="109.87"></rect>
			<rect x="247.92" y="118.92" class="st8" width="4.39" height="109.87"></rect>
			<rect x="182.58" y="131.88" class="st6" width="56.6" height="83.96"></rect>
		</g>
		<g>
			<rect x="279.04" y="114.66" class="st7" width="74.08" height="109.87"></rect>
			<rect x="353.12" y="114.66" class="st8" width="4.39" height="109.87"></rect>
			<rect x="287.78" y="127.61" class="st6" width="56.6" height="83.96"></rect>
		</g>
	</g>
	<g class="st2">
		<linearGradient id="SVGID_4_" gradientUnits="userSpaceOnUse" x1="305.4684" y1="319.2413" x2="302.0708" y2="199.0211">
			<stop offset="0" style="stop-color:#FF9700"></stop>
			<stop offset="1" style="stop-color:#FFAA00"></stop>
		</linearGradient>
		<path class="st9" d="M355.65,230.96c-0.77,0.24-1.51,0.58-2.21,0.99c-8.43,4.94-12.31,21.31-8.44,35.2    c0.01,0.03,0.01,0.04,0.01,0.06c0.28,1.04,0.62,2.06,1.01,3.06c0.04,0.13,0.06,0.19,0.06,0.19s0,0.01,0.01,0.03    c0.01,0.06,0.04,0.12,0.07,0.18c0.13,0.34,0.42,1.05,0.9,2.14c0.28,0.59,0.59,1.19,0.9,1.77c-0.01,0.06-0.01,0.12-0.03,0.19    c-1.01,6.54,0.03,38.4,0.03,38.4l-24.68,2.77l-55.43,6.21c0,0-0.5-18.24,0.28-37.27c0.22-5.34-1.07-10.98-3.03-16.32    c-5.03-13.69-14.49-25.45-14.49-25.45l0.04-0.04c8.47-9.85,23.2-16.55,27.47-18.36c0.76-0.33,1.19-0.49,1.19-0.49l0.62-0.18    l20.78-6.04c0,0,4.12-0.22,8.56-0.7c1.39-0.15,3.77-0.07,7.25,0.47c2.85,0.45,6.44,1.23,10.81,2.49    c6.53,1.85,14.8,4.78,25.01,9.24c0.36,0.15,0.71,0.31,1.07,0.46C354.17,230.29,354.91,230.62,355.65,230.96z"></path>
		<path class="st7" d="M352.33,229.49c-2.85,1.44-10.46,6.62-11.6,20.45c-1.41,17.1-5.64,61.39-15.52,64.8    c-1.04,0.36-1.66,0.74-1.94,1.16l24.68-2.77c0,0-1.04-31.86-0.03-38.4c0.01-0.07,0.01-0.13,0.03-0.19    c-0.31-0.58-0.62-1.17-0.9-1.77c-0.49-1.08-0.77-1.79-0.9-2.14c-0.03-0.06-0.06-0.12-0.07-0.18c-0.01-0.01-0.01-0.03-0.01-0.03    s-0.01-0.06-0.06-0.19c-0.39-0.99-0.73-2.02-1.01-3.06c0-0.01,0-0.03-0.01-0.06c-0.19-0.68-0.36-1.36-0.49-2.06    c-0.01-0.03-0.01-0.07-0.01-0.1c-2.54-12.93,3.43-28.49,10.95-33.92c0.06-0.04,0.12-0.09,0.16-0.1L352.33,229.49z"></path>
		<path class="st10" d="M265.13,268.56c-3.92,5.73-7.85,11.26-7.85,11.26l-20.08-12.28l13.41-24.46c0,0,0.03,0,0.07-0.01l-0.04,0.04    C250.64,243.11,260.1,254.87,265.13,268.56z"></path>
		<path class="st7" d="M327.34,220.24c-5.92,9.11-13.96,29.71-24.22,29.71c-12.33,0-13.84-10.18-18.47-17.55    c-2.57-4.08-4.92-6.44-6.53-7.73c0.76-0.33,1.19-0.49,1.19-0.49l0.62-0.18l20.78-6.04c0,0,4.12-0.22,8.56-0.7    c1.39-0.15,3.77-0.07,7.25,0.47C319.37,218.19,322.96,218.98,327.34,220.24z"></path>
		<path class="st10" d="M316.52,217.75c-2.31,5.71-4.84,28.46-15.62,28.55c-11.3,0.1-14.89-19.36-20.97-22.29l20.78-6.04    c0,0,4.12-0.22,8.56-0.7C310.67,217.12,313.04,217.2,316.52,217.75z"></path>
		<path class="st11" d="M273.21,206.16c-0.95,0.5-2.6,1.17-3.5,0.27c-0.33-0.33-0.89-1.59-1.59-3.32    c-1.39-3.56-3.26-9.12-4.35-12.62c-0.52-1.72-0.86-2.94-0.86-3.17c0-0.39,0.19-0.64,0.43-0.82c0.86,0.36,1.72,0.58,2.58,0.73    C266.82,190.26,269.53,199.06,273.21,206.16z"></path>
		<path class="st12" d="M268.12,203.11c0,0-2.55,0.59-3,0.33c-0.45-0.27-3.44-8.02-3.69-9.94c-0.27-1.91,2.34-3.01,2.34-3.01    C264.86,193.98,266.73,199.55,268.12,203.11z"></path>
		<path class="st10" d="M318.71,164.21c1,7.62-6.89,29.79-9.94,39.79c-0.69,2.27-1.14,3.92-1.17,4.62    c-0.13-0.72-0.21-1.33-0.25-1.85c-0.02-0.21-0.03-0.4-0.03-0.59c-0.02-0.5-0.03-0.97-0.05-1.4c-0.01-0.08-0.01-0.15-0.02-0.22    c0.21-0.64,0.4-1.32,0.59-2.02c0.25-1.34,0.59-2.72,0.91-4.06c0-0.02,0-0.02,0-0.03c0.33-1.53,0.63-3.04,0.74-4.5    c0.02-0.02,0.02-0.05,0.02-0.08c0.05-0.43,0.05-0.86,0.05-1.29c-0.09-5.1,1.05-18.24,1.05-18.24s-0.24,0.11-0.66,0.31    c-0.18,0.07-0.4,0.18-0.65,0.28c-0.09,0.04-0.2,0.08-0.3,0.11c-0.2,0.11-0.4,0.2-0.64,0.28c-0.05,0.03-0.11,0.05-0.16,0.08    c0.43,1.28,0.53,3-1.59,3.69c-3.58,1.19-1.1,12.26-3.74,9.97c-1.83-1.59-2.53-7.88-2.76-10.95c-0.18,0.03-0.34,0.08-0.5,0.1    c-4.67,0.87-19.74,5.9-23.44,14.72c-1.89-2.66,1.74-8.09,1.92-8.36c-0.06,0.04-0.48,0.3-1.16,0.65l-0.01,0.01    c-1.57,0.79-4.56,2.05-8.01,2.17h-0.05c-0.33,0.02-0.67,0.02-1,0c0.78,3.59,2.54,11.72,2.73,13.04v0.02    c0.19,1.44-5.33-8.67-6.94-13.87c-0.09-0.05-0.2-0.06-0.28-0.11c-1.11-0.43-2.21-1.04-3.29-1.87c-1.88-1.44-3.67-3.55-5.24-6.57    c-5.12-9.78-4.14-18.76-4.14-18.76s4.49,2.61,10.34,1.96c1.96-0.21,4.08-0.79,6.22-1.96c-3.53-0.89-2.66-5.12-2.66-5.12    s1.86,2.21,7.4,0.53c5.56-1.67,23.61-15.69,35.6-1.16c-0.78-4.75-5.19-8.19-5.19-8.19s3.96-0.62,5.55,2.46    c1.59,3.08,1.06,6.79,1.06,6.79s3.61-6.26,11.2-0.18c-6.53-0.36-8.9,1.23-8.9,1.23S317.47,154.89,318.71,164.21z"></path>
		<linearGradient id="SVGID_5_" gradientUnits="userSpaceOnUse" x1="296.726" y1="167.5965" x2="280.7329" y2="217.0296">
			<stop offset="0" style="stop-color:#F98885"></stop>
			<stop offset="1" style="stop-color:#FFACA6"></stop>
		</linearGradient>
		<path class="st13" d="M309.54,192.59c0,0.43,0,0.86-0.04,1.29c0,0.03,0,0.06-0.01,0.07c-0.22,1.44-0.47,2.94-0.74,4.49    c0,0.01,0,0.01,0,0.03c-0.31,1.35-0.65,2.73-0.9,4.06c-0.19,0.7-0.39,1.38-0.59,2.02c-0.37,1.16-0.79,2.22-1.22,3.22    c-1.19,2.76-2.58,4.95-3.99,6.69c-0.06,0.07-0.13,0.15-0.19,0.22c-3.23,3.9-6.54,5.38-7.8,5.53c-1.66,0.18-4.2,0.3-8.19-1.59    c-1.78-0.83-3.83-2.06-6.23-3.84c-2.31-1.72-4.48-4.95-6.41-8.63c-0.95-1.82-1.84-3.77-2.64-5.7v-0.01    c-0.01-0.07-0.03-0.18-0.04-0.31c0-0.01,0-0.03-0.01-0.04c-0.34-1.93-1.81-8.69-2.57-12.21c-0.04-0.16-0.07-0.33-0.1-0.47    c5.58,0.19,10.23-2.83,10.23-2.83s-0.83,1.2-1.53,2.77c-0.82,1.82-1.44,4.12-0.4,5.59c0.89-2.14,2.45-4.05,4.38-5.71    c6.01-5.3,15.52-8.34,19.06-9c0.16-0.03,0.33-0.07,0.5-0.1c0.24,3.07,0.93,9.36,2.76,10.95c2.64,2.28,0.16-8.78,3.74-9.97    c2.12-0.7,2.02-2.42,1.59-3.69c0.06-0.03,0.12-0.04,0.16-0.07c0.24-0.09,0.45-0.18,0.64-0.28c0.1-0.03,0.21-0.07,0.3-0.12    c0.25-0.1,0.47-0.21,0.65-0.28c0.43-0.19,0.67-0.31,0.67-0.31S309.45,187.49,309.54,192.59z"></path>
		<linearGradient id="SVGID_6_" gradientUnits="userSpaceOnUse" x1="311.4102" y1="199.0906" x2="288.1478" y2="241.3859">
			<stop offset="0" style="stop-color:#F98885"></stop>
			<stop offset="1" style="stop-color:#FFACA6"></stop>
		</linearGradient>
		<path class="st14" d="M307.64,228.23c-0.64,3.35-1.71,7.46-3.13,10.31c-1.07,2.12-2.31,3.56-3.74,3.49    c-4.89-0.27-10.71-10.04-11.9-13.22c-0.52-1.36-1.23-3.75-1.88-6.04c-0.43-1.54-0.85-3.04-1.14-4.14c1.68,0.79,3.1,1.23,4.3,1.45    c1.66,0.33,2.92,0.24,3.89,0.13c2.05-0.22,9.39-3.96,13.2-15.66c0.03,0.49,0.04,1.02,0.07,1.62c0,0.19,0.01,0.39,0.03,0.59    c0.25,5.7,0.68,14.58,0.93,15.83C308.4,223.19,308.17,225.46,307.64,228.23z"></path>
		<g class="st7">
			<path d="M267.84,187.41c5.58,0.19,10.23-2.83,10.23-2.83s-0.83,1.2-1.53,2.77c-3.32,0.15-6.38,0.36-8.6,0.53     C267.9,187.72,267.87,187.56,267.84,187.41z"></path>
			<path d="M309.54,192.59c0,0.43,0,0.86-0.04,1.29c0,0.03,0,0.06-0.01,0.07c-0.22,1.44-0.47,2.94-0.74,4.49c0,0.01,0,0.01,0,0.03     c-0.31,1.35-0.65,2.73-0.9,4.06c-0.19,0.7-0.39,1.38-0.59,2.02c-0.37,1.16-0.79,2.22-1.22,3.22c0.01-8.78-2.73-15.32-7.37-18.5     c-2.74-1.87-10.61-2.21-18.13-2.05c6.01-5.3,15.52-8.34,19.06-9c0.16-0.03,0.33-0.07,0.5-0.1c0.24,3.07,0.93,9.36,2.76,10.95     c2.64,2.28,0.16-8.78,3.74-9.97c2.12-0.7,2.02-2.42,1.59-3.69c0.06-0.03,0.12-0.04,0.16-0.07c0.24-0.09,0.45-0.18,0.64-0.28     c0.1-0.03,0.21-0.07,0.3-0.12c0.25-0.1,0.47-0.21,0.65-0.28c0.43-0.19,0.67-0.31,0.67-0.31S309.45,187.49,309.54,192.59z"></path>
		</g>
		<path class="st6" d="M301.84,214.69c-3.23,3.9-6.54,5.38-7.8,5.53c-1.66,0.18-4.2,0.3-8.19-1.59c-1.78-0.83-3.83-2.06-6.23-3.84    c-2.31-1.72-4.48-4.95-6.41-8.63c-0.95-1.82-1.84-3.77-2.64-5.7v-0.01c-0.01-0.07-0.03-0.18-0.04-0.31    c2.17,4.41,5.41,9.42,10,12.55C290.08,219.21,296.51,220.89,301.84,214.69z"></path>
		<path class="st7" d="M307.64,228.23c-4.82-2.76-12.21-5.96-17.49-8.14c1.66,0.33,2.92,0.24,3.89,0.13    c2.05-0.22,9.39-3.96,13.2-15.66c0.03,0.49,0.04,1.02,0.07,1.62c0,0.19,0.01,0.39,0.03,0.59c0.25,5.7,0.68,14.58,0.93,15.83    C308.4,223.19,308.17,225.46,307.64,228.23z"></path>
		<path class="st6" d="M304.51,238.54c-1.07,2.12-2.31,3.56-3.74,3.49c-4.89-0.27-10.71-10.04-11.9-13.22    c-0.52-1.36-1.23-3.75-1.88-6.04C289.41,228.56,296.74,243.96,304.51,238.54z"></path>
		<path class="st7" d="M318.71,164.21c1,7.62-6.89,29.79-9.94,39.79c-0.58,0.3-1.09,0.56-1.51,0.78c-0.01-0.08-0.01-0.15-0.02-0.22    c0.21-0.64,0.4-1.32,0.59-2.02c0.25-1.34,0.59-2.72,0.91-4.06c0-0.02,0-0.02,0-0.03c0.33-1.53,0.63-3.04,0.74-4.5    c0.02-0.02,0.02-0.05,0.02-0.08c0.05-0.43,0.05-0.86,0.05-1.29c-0.09-5.1,1.05-18.24,1.05-18.24s-0.24,0.11-0.66,0.31    c-0.18,0.07-0.4,0.18-0.65,0.28c-0.09,0.04-0.2,0.08-0.3,0.11c-0.2,0.11-0.4,0.2-0.64,0.28c-0.05,0.03-0.11,0.05-0.16,0.08    c0.43,1.28,0.53,3-1.59,3.69c-3.58,1.19-1.1,12.26-3.74,9.97c-1.83-1.59-2.53-7.88-2.76-10.95c-0.18,0.03-0.34,0.08-0.5,0.1    c-4.67,0.87-19.74,5.9-23.44,14.72c0,0,1.35-10.19,12.11-15.4c10.76-5.22,7.82-15.16,7.82-15.16l4.73,2.94    c0,0-0.33-10.77-8.97-13.21c11.08-0.81,18.42,7.99,18.42,7.99s-3.93-10.51,9.94-5.67c-6.53-0.36-8.9,1.23-8.9,1.23    S317.47,154.89,318.71,164.21z"></path>
		<g>
			<path class="st15" d="M307.43,173.86c0,0-6.37-27.66-32.35-20.5c2.39-4.21,9.17-6.59,17.81-4.56     c8.64,2.03,17.43,13.57,19.07,23.83L307.43,173.86z"></path>
			<path class="st11" d="M316.23,198.3c-0.64,0.09-1.31-0.13-1.94-0.65c-2.08-1.63-4.03-6.1-4.85-11.53     c-0.8-5.44-0.21-10.29,1.32-12.44c0.46-0.67,1.02-1.08,1.66-1.17c2.7-0.4,5.74,5.06,6.79,12.18     C320.26,191.8,318.93,197.9,316.23,198.3z"></path>
			<path class="st4" d="M316.23,198.3l-3.6,0.53c-2.7,0.4-5.74-5.06-6.78-12.18c-1.05-7.13,0.28-13.23,2.98-13.63l3.59-0.52     c-0.64,0.09-1.2,0.5-1.66,1.17c-1.53,2.15-2.12,7-1.32,12.44c0.82,5.43,2.77,9.89,4.85,11.53     C314.92,198.17,315.59,198.39,316.23,198.3z"></path>
			<path class="st12" d="M320.53,193.48l-3.04,0.46c-1.79,0.25-3.8-3.35-4.49-8.05c-0.7-4.72,0.19-8.75,1.97-9.02l3.06-0.44     c-0.55,0.09-1.02,0.53-1.38,1.25c-0.56,1.11-0.86,2.89-0.83,4.97c0.01,0.89,0.09,1.82,0.24,2.79c0.15,0.99,0.34,1.93,0.59,2.79     c0.56,1.99,1.36,3.59,2.23,4.48C319.4,193.27,319.98,193.57,320.53,193.48z"></path>
			<path class="st15" d="M320.53,193.48c-0.55,0.09-1.13-0.21-1.66-0.79c-0.86-0.89-1.66-2.49-2.23-4.48     c-0.25-0.86-0.44-1.79-0.59-2.79c-0.15-0.96-0.22-1.9-0.24-2.79c-0.03-2.08,0.27-3.86,0.83-4.97c0.36-0.71,0.83-1.16,1.38-1.25     c1.78-0.27,3.8,3.34,4.48,8.05C323.2,189.19,322.32,193.23,320.53,193.48z"></path>
		</g>
		<path class="st6" d="M279.05,182.63c0,0-0.47,1.35-2.14,2.6l-0.01,0.01c-1.51,1.15-4,2.23-8.01,2.17h-0.05    c-3-0.05-6.03-1.19-8.78-2.79c-1.88-1.44-3.67-3.55-5.24-6.57c-5.12-9.78-4.14-18.76-4.14-18.76s4.49,2.61,10.34,1.96    c-1.04,0.55-2.43,1.1-3.99,1.22c-3.3,0.24-4.73-1.22-4.73-1.22s2.69,16.62,9.11,21.39C267.84,187.41,279.05,182.63,279.05,182.63z    "></path>
	</g>
	<g class="st2">
		<linearGradient id="SVGID_7_" gradientUnits="userSpaceOnUse" x1="282.5114" y1="259.8297" x2="244.1861" y2="434.1014">
			<stop offset="0" style="stop-color:#F98885"></stop>
			<stop offset="1" style="stop-color:#D85656"></stop>
		</linearGradient>
		<path class="st16" d="M408.24,380.46c0,0-4.03,23.12-36.4,41.59c-0.83,0.49-1.71,0.96-2.58,1.44    c-11.09,5.98-25.3,11.36-43.49,15.2c-4.08,0.86-8.28,1.48-12.59,1.85c-0.76,0.07-1.51,0.13-2.27,0.18    c-28.39,1.99-60.95-5.83-91.43-18.96c-0.44-0.18-0.89-0.37-1.32-0.56c-34.65-15.1-66.48-36.96-86.34-58.95    c-0.36-0.37-0.7-0.76-1.02-1.13c-7.86-8.9-13.75-17.78-17.04-26.24l6.93-4.76l2.76-1.9l35.36-24.3h0.01l1.54-1.07l13.14-9.03    l39.59,2.8l3.5,0.24l62.99,4.46l8.22,0.58c0.01,0,0.01,0,0.01,0l27.1,1.91l1.44,0.1l48.35,3.43l0.47,0.03l1.56,0.12l16.78,1.17    c0,0,0,0,0,0.01l1.59,0.1l3.77,0.27l8.8,0.62l3.06,20.47l0.22,1.51l1.51,10.04l0.27,1.84L408.24,380.46z"></path>
		<g class="st8">
			<path class="st7" d="M228.58,363.18c-0.71,7.54-3.62,15.52-10.13,19.91c-12.92,8.71-37.3,5.22-42.29-11.23     c-1.04-3.41-1.28-7.67,1.16-10.55c2.12-2.49,5.87-3.62,8.93-4.32c6.73-1.56,14.25-0.79,19.03,4.64c0.64,0.71-0.42,1.77-1.04,1.05     c-5.35-6.08-14.45-5.84-21.48-3.09c-12.31,4.85-2.83,19.53,5.1,23.5c7,3.5,15.96,3.68,23.41,1.59     c8.43-2.37,13.32-8.96,15.16-17.27c1.72-7.83,1.14-16.84-6.08-21.72c-6.78-4.58-16.11-5.99-24.09-6.7     c-7.74-0.68-15.53-0.45-23.29-0.1c-8.59,0.39-17.19,0.67-24.61,5.55c-6.3,4.14-11.5,10.41-15.72,16.57     c-0.28,0.42-0.56,0.83-0.83,1.25c-0.36-0.37-0.7-0.76-1.02-1.13c1.13-1.71,2.33-3.37,3.6-4.98c6.56-8.37,14.31-15.72,25.11-17.62     c10.09-1.77,21.11-1.74,31.31-1.33c9.45,0.36,19.89,1.54,28.35,6.08C226.8,347.37,229.37,354.83,228.58,363.18z"></path>
			<path class="st7" d="M252.79,331.64c-4.01-7.93-11.62-13.58-19.77-16.74c-9.31-3.61-20.78-4.67-29,1.95     c-0.74,0.6,0.31,1.64,1.05,1.05c9.41-7.58,23.69-4.36,33.3,1.19c11.37,6.57,16.81,17.37,15.97,30.42     c-1.59,24.77-19.58,46.47-44.51,50.16c-0.94,0.14-0.54,1.57,0.39,1.43c20.84-3.09,37.46-18.7,43.33-38.73     C256.42,352.62,257.52,340.98,252.79,331.64z"></path>
			<path class="st7" d="M371.84,422.05c-0.83,0.49-1.71,0.96-2.58,1.44c-3.43,0-6.84-0.18-10.2-0.47     c-8.41-0.71-16.82-1.96-25.01-4.03c-6.26-1.6-12.82-3.57-17.8-7.88c-10.23-8.81-10.1-23.82-11.69-36.12     c-2.05-15.8-6.1-31.85-16.26-44.48c-0.59-0.74,0.44-1.79,1.05-1.05c7.74,9.64,12.12,21.21,14.65,33.24     c2.54,12.09,1.96,25.23,6.26,36.86c4.78,12.9,17.28,16.67,29.62,19.25C350.19,420.96,361.14,422.42,371.84,422.05z"></path>
			<path class="st7" d="M402.72,343.56c-1.1-0.56-2.25-1.07-3.49-1.51c-5.67-2.02-12.4-2.92-18.32-1.66     c-6.6,1.39-11.35,6.22-15.01,11.6c-3.57,5.25-6.32,11.14-7.27,17.46c-0.58,3.8-0.8,8.41,2.97,10.69     c2.25,1.38,5.07,1.69,7.65,1.82c1.96,0.1,3.63,0.12,5.53-0.43c2.6-0.77,3.63-2.61,4.51-4.98c1.11-2.98,2.18-6.29,2.17-9.49     c-0.01-4.87-3.53-9.63-8.87-8.5c-3.63,0.76-5.74,3.96-6.38,7.39c-0.16,0.93-1.6,0.53-1.42-0.4c1.02-5.61,6.27-10.22,12.19-8.17     c6.78,2.36,6.48,10.55,4.87,16.15c-0.79,2.7-1.65,6.14-3.83,8.1c-2.37,2.15-5.77,1.97-8.77,1.82c-5.49-0.3-11.38-1.91-12.33-8.14     c-0.95-6.23,1.66-13.28,4.46-18.69c2.95-5.68,6.99-11.47,12.46-14.97c7.94-5.06,19.62-4.17,28.6,0.07L402.72,343.56z"></path>
			<path class="st7" d="M381.12,394.86c-11.2,6.13-25.94,6.23-34.89-3.8c-8.63-9.69-11.66-23.87-9.76-36.47     c0.99-6.6,3.37-12.99,7.08-18.56c3.99-6.01,9.23-11.01,13.85-16.49c3.07-3.65,5.95-7.71,7.77-12.15l1.56,0.12     c-0.18,0.47-0.37,0.96-0.59,1.44c-5.38,11.94-16.88,19.51-23.15,30.85c-6.39,11.57-7.3,25.93-2.68,38.28     c2.46,6.57,6.63,13.28,12.87,16.78c6.63,3.72,14.82,3.41,21.85,1.04c6.11-2.06,11.97-5.92,15.31-11.55     c3.77-6.33,3.81-14.64-0.9-20.48c-0.59-0.74,0.46-1.79,1.05-1.05C399.51,373.99,392.39,388.68,381.12,394.86z"></path>
			<path class="st7" d="M385.1,308.8c-0.31,1.39-0.79,2.77-1.45,4.08c-2.2,4.3-6.13,7.27-9.82,10.22     c-4.72,3.77-9.57,7.4-14.12,11.36c-4.98,4.32-9.27,9.51-9.43,16.4c-0.01,0.95-1.5,0.95-1.48,0c0.25-10.8,9.51-17.25,17.18-23.38     c4.38-3.5,9.29-6.79,13.14-10.89c2.24-2.37,3.65-5.04,4.41-7.91L385.1,308.8z"></path>
			<path class="st7" d="M400.94,331.68c-5.95-0.8-11.94-1.36-17.95-1.75c-0.95-0.06-0.95-1.54,0-1.48     c5.93,0.37,11.84,0.93,17.73,1.72L400.94,331.68z"></path>
			<path class="st7" d="M311.15,356.77c-4.03-10.68-4.52-22.2-7.92-33.05c-3.38-10.75-10.95-21.52-23.18-22.17     c-0.21-0.01-0.36-0.09-0.47-0.21l8.22,0.58c0.01,0,0.01,0,0.01,0c6.88,3.03,12.01,9.36,15.03,16.42     c5.18,12.13,5.1,25.72,9.75,38.05C312.92,357.28,311.48,357.66,311.15,356.77z"></path>
			<path class="st7" d="M340.38,312.01c-0.98,3.09-2.12,6.11-3.49,9.05c-0.79,1.65-1.54,4.29-3.22,5.27     c-3.13,1.82-8.37,0.03-11.11-1.78c-6.9-4.55-7.52-12.83-7.65-20.71l1.44,0.1c0.04,5.89,0.43,11.82,4.05,16.52     c2.45,3.19,9.75,7.54,13.36,3.47c1.32-1.45,2.17-4.29,2.89-6.04c0.88-2.06,1.62-4.15,2.3-6.29     C339.23,310.7,340.67,311.09,340.38,312.01z"></path>
			<path class="st7" d="M313.17,440.55c-0.76,0.07-1.51,0.13-2.27,0.18c-0.03-0.03-0.06-0.04-0.09-0.07     c-9.27-8.16-14.88-19.39-20.14-30.35c-6.08-12.64-12.59-25.02-19.8-37.05c-0.5-0.82,0.79-1.57,1.28-0.74     c6.39,10.68,12.34,21.61,17.77,32.83c5.06,10.43,9.83,21.27,17.65,30.01C309.33,437.3,311.2,439.02,313.17,440.55z"></path>
			<path class="st7" d="M326.27,432.47c-12.29-7.77-21.84-18.99-27.61-32.34c-0.38-0.87-1.66-0.12-1.28,0.75     c5.86,13.57,15.65,24.97,28.14,32.87C326.33,434.27,327.07,432.98,326.27,432.47z"></path>
			<path class="st7" d="M275.53,424.01c-1.85,2.82-6.01,2.95-9.02,3.29c-7.64,0.83-17.7-0.82-18.7-10.12c-0.1-0.95,1.38-0.93,1.48,0     c0.79,7.25,8.56,9.2,14.67,8.86c2.48-0.13,5.37-0.24,7.71-1.1c3.98-1.44,3.83-5.78,2.48-9.09     c-4.09-10.06-19.36-12.73-28.91-11.39c-10.83,1.5-17.93,10.03-25.76,17.31c-0.44-0.18-0.89-0.37-1.32-0.56     c3.83-3.43,7.4-7.22,11.33-10.52c6.85-5.73,14.18-8.68,23.23-7.76c8.29,0.85,18.21,3.14,22.34,11.26     C276.48,416.97,277.4,421.19,275.53,424.01z"></path>
			<path class="st7" d="M262.53,397.74c-3.35-4.15-8.49-6.24-13.79-5.61c-0.94,0.11-0.95,1.6,0,1.48c4.96-0.59,9.6,1.29,12.74,5.18     C262.08,399.53,263.12,398.47,262.53,397.74z"></path>
			<path class="st7" d="M208.44,333.81c-3.86-3.01-8.72-3.62-13.42-4.27c-5.35-0.76-10.74-1.32-16.12-1.74     c-9.49-0.71-19.03-0.89-28.55-0.53c-9.94,0.37-19.85,1.32-29.67,2.86l2.76-1.9c8.44-1.23,16.95-2.02,25.48-2.39     c11.42-0.49,22.86-0.21,34.25,0.83c8.38,0.77,19.39,0.67,26.31,6.08C210.23,333.35,209.18,334.39,208.44,333.81z"></path>
			<path class="st7" d="M216.58,296.88c-4.92,1.91-9.83,3.83-14.76,5.71c-6.67,2.55-13.25,4.18-20.42,4.14     c-6.56-0.04-13.54-0.52-19.95-2.03c-0.89-0.21-1.78-0.46-2.64-0.76l1.54-1.07c2.11,0.62,4.3,0.98,6.44,1.26     c6.19,0.79,12.56,1.42,18.79,0.99c6.7-0.46,12.8-2.77,19.02-5.19c2.83-1.1,5.65-2.2,8.48-3.29L216.58,296.88z"></path>
			<path class="st7" d="M278.08,346.82c-5.13-17.92-15.05-36.53-34.46-41.58c-0.92-0.24-1.32,1.19-0.39,1.43     c18.91,4.91,28.44,23.13,33.43,40.54C276.91,348.13,278.34,347.74,278.08,346.82z"></path>
		</g>
	</g>
	<g class="st2">
		<g>
			<polygon class="st17" points="382.72,331.37 311.87,330.45 285.7,370.1 328.85,367.55 372.54,366.98    "></polygon>
			<polygon class="st6" points="324.34,334.19 373.51,334.19 366.99,359.06 310.02,359.57    "></polygon>
			<polygon class="st6" points="358.98,361.33 365.96,361.33 365.03,364.85 356.95,364.93    "></polygon>
			<polygon class="st6" points="359.63,353.57 366.61,353.57 365.68,357.1 357.6,357.17    "></polygon>
			<polygon class="st6" points="347.08,353.57 354.06,353.57 353.14,357.1 345.05,357.17    "></polygon>
			<polygon class="st6" points="336.95,353.57 343.93,353.57 343.01,357.1 334.92,357.17    "></polygon>
			<polygon class="st6" points="345.48,348.47 352.46,348.47 351.53,352 343.45,352.08    "></polygon>
			<polygon class="st6" points="334.11,348.29 341.09,348.29 340.16,351.82 332.08,351.89    "></polygon>
			<polygon class="st6" points="341,343.71 347.97,343.71 347.05,347.24 338.97,347.31    "></polygon>
			<polygon class="st6" points="332.3,343.28 339.28,343.28 338.35,346.81 330.27,346.88    "></polygon>
			<polygon class="st6" points="346.44,339.03 353.41,339.03 352.49,342.56 344.41,342.63    "></polygon>
			<polygon class="st6" points="343.51,334.89 350.49,334.89 349.57,338.42 341.48,338.49    "></polygon>
			<polygon class="st6" points="336.24,339.03 343.22,339.03 342.29,342.56 334.21,342.63    "></polygon>
			<polygon class="st6" points="351.59,343.28 358.57,343.28 357.64,346.81 349.56,346.88    "></polygon>
			<polygon class="st6" points="347.08,361.33 354.06,361.33 353.14,364.85 345.05,364.93    "></polygon>
			<polygon class="st6" points="335.19,361.33 342.17,361.33 341.24,364.85 333.16,364.93    "></polygon>
			<polygon class="st10" points="244.86,368.65 372.54,366.98 375.19,379.36 244.86,379.36    "></polygon>
			<polygon class="st18" points="372.54,366.98 382.72,331.37 383.25,337.06 375.19,379.36    "></polygon>
		</g>
		<path class="st19" d="M359.08,375.08c0,0,3.88,18.86-20.37,23.61c-24.24,4.76-45.92,3.35-54.91,34.01"></path>
	</g>
	
		<radialGradient id="SVGID_8_" cx="290.0647" cy="370.2562" r="188.1894" fx="287.8741" fy="370.1571" gradientUnits="userSpaceOnUse">
		<stop offset="0" style="stop-color:#8E00FF"></stop>
		<stop offset="1" style="stop-color:#380690;stop-opacity:0"></stop>
	</radialGradient>
	<path class="st20" d="M422.89,315.97c-6.57,55.19-35.93,107.15-99.61,114.49c-91.61,10.57-198.19-68.77-232.42-129.5   c20.38-88.61,99.75-154.7,194.56-154.7c43.07,0,82.96,13.64,115.58,36.84c2.84,12.65,6.25,25.24,10.94,37.22   C422.39,247.04,426.92,282.12,422.89,315.97z"></path>
	<linearGradient id="SVGID_9_" gradientUnits="userSpaceOnUse" x1="122.0229" y1="458.9424" x2="259.9417" y2="253.5309">
		<stop offset="0" style="stop-color:#2BA2FF"></stop>
		<stop offset="0.9944" style="stop-color:#090628;stop-opacity:0"></stop>
	</linearGradient>
	<path class="st21" d="M422.19,315.83c-6.57,55.19-35.93,107.15-99.61,114.49c-91.61,10.57-198.19-68.77-232.42-129.5   c-4.17-7.39-7.26-14.49-9.13-21.14c-17.22-61.25,0.31-131.91,77.08-179.84c76.79-47.93,157.84-44.41,157.84-44.41   c12.04,0.51,22.02,2.79,30.37,6.55c40.13,18.04,42.5,70.03,53.97,120.98c2.84,12.65,6.25,25.24,10.94,37.22   C421.69,246.9,426.23,281.97,422.19,315.83z"></path>
	<g class="st2">
		<path class="st4" d="M242.78,424.16c-0.62,0.24-1.25,0.42-1.88,0.53c-9.51,1.84-51.74-12.7-53.22-26.18c0,0,2.06-3.87,5.81-8.2    c3.14-3.63,7.49-7.59,12.79-9.85c11.6-4.94,44.93,5.37,48.1,16.73C257.34,407.8,251.32,420.94,242.78,424.16z"></path>
		<path class="st7" d="M242.78,424.16c-0.62,0.24-1.25,0.42-1.88,0.53c-9.51,1.84-51.74-12.7-53.22-26.18c0,0,2.06-3.87,5.81-8.2    c7.51-3.57,21.29-8.07,35.51-2.02C245.09,395.13,244.14,415.04,242.78,424.16z"></path>
		<path class="st4" d="M331.3,253.12c-9.17,9.65-111.5,13.76-174.55-18.95c-8.01-4.15-15.38-8.9-21.84-14.29    c-2.73-2.28-5.29-4.67-7.68-7.19c0,0,5.03-2.39,6.62-1.59c0.65,0.32,4.98,4.51,14.05,10.18c3.58,2.23,7.88,4.69,13,7.24    c13.19,6.56,31.74,13.67,56.74,18.79c47.41,9.72,95.02,4.45,109.55,5.1C329.27,252.52,330.66,252.74,331.3,253.12z"></path>
		<linearGradient id="SVGID_10_" gradientUnits="userSpaceOnUse" x1="334.1133" y1="153.4425" x2="176.0332" y2="359.1053">
			<stop offset="0" style="stop-color:#270D84"></stop>
			<stop offset="1" style="stop-color:#1A0359"></stop>
		</linearGradient>
		<path class="st22" d="M336.18,353.66c-0.29,3.81-0.76,6.77-1.44,8.56c-3.34,8.78-45.78,22.16-93.8,17.15h-0.02    c-1.4-0.15-2.81-0.31-4.21-0.49c-0.71-0.09-1.41-0.17-2.12-0.28c-0.5-0.06-0.99-0.13-1.49-0.21c-0.44-0.06-0.87-0.13-1.31-0.19    c-0.58-0.09-1.16-0.18-1.74-0.28c-0.55-0.09-1.1-0.17-1.65-0.27c-0.51-0.09-1.04-0.17-1.55-0.28c-0.74-0.13-1.49-0.27-2.24-0.41    c-0.83-0.16-1.66-0.32-2.49-0.51c-2-0.41-3.99-0.85-5.97-1.34c-0.97-0.24-1.94-0.48-2.9-0.72c-0.03-0.01-0.06-0.02-0.09-0.03    c-0.96-0.25-1.92-0.51-2.88-0.78c-0.03-0.01-0.08-0.02-0.11-0.03c-1.12-0.31-2.22-0.64-3.34-0.98c-1.81-0.55-3.62-1.13-5.42-1.75    h-0.01c-20.15-6.91-39.71-18.04-56.28-35.03c-14.44-24.68-17.89-123.1-17.89-123.1c2.39,2.52,4.95,4.91,7.68,7.19    c6.46,5.4,13.83,10.14,21.84,14.29c63.05,32.71,165.38,28.6,174.55,18.95C331.3,253.12,338.31,325.98,336.18,353.66z"></path>
		<path class="st7" d="M204.38,301.47c16.29-4.06,33.69,7.01,33.39,33.42c-0.28,24.66-22.7,25.85-33.37,16.27    C194.04,341.87,185.14,306.27,204.38,301.47z"></path>
		<path class="st23" d="M202.04,300.22c16.29-4.06,33.69,7.01,33.39,33.42c-0.28,24.66-22.7,25.85-33.37,16.27    C191.7,340.62,182.8,305.01,202.04,300.22z"></path>
		<path class="st4" d="M201.52,301.92c16.5-3.08,33.21,9.02,31.32,35.37c-1.77,24.6-24.21,24.43-34.29,14.24    C188.77,341.63,182.03,305.56,201.52,301.92z"></path>
		<path class="st7" d="M240.92,379.36c-11.2-1.16-22.71-3.34-34.1-6.79l-1.22-41.86c0,0-1.32-3.44,2.25-5.28    c3.56-1.85,8.59,0.39,9.64,7.4C218.55,339.83,229.19,375.02,240.92,379.36z"></path>
		<linearGradient id="SVGID_11_" gradientUnits="userSpaceOnUse" x1="219.2214" y1="300.883" x2="208.9998" y2="421.7786">
			<stop offset="0" style="stop-color:#270D84"></stop>
			<stop offset="1" style="stop-color:#1A0359"></stop>
		</linearGradient>
		<path class="st24" d="M226.53,397.28c-0.33,1.91-0.99,3.5-1.93,4.79c-3.2,4.42-9.52,5.38-15.37,4.02    c-7.3-1.71-9.86-58.65-8.57-68.59c0.03-0.34,0.09-0.62,0.13-0.85c1.59-6.87,6.53-9.34,6.53-9.34s7.05-0.88,7.05,7.76    c-0.88,2.3-3,3.17-3.52,5.46C210.32,342.83,227.94,388.83,226.53,397.28z"></path>
		<path class="st25" d="M181.96,265.75c0,0,30.97,15.12,70.2,12.4"></path>
		<path class="st7" d="M224.61,402.07c-3.2,4.42-9.52,5.38-15.37,4.02c-7.3-1.71-9.86-58.65-8.57-68.59    c0.93,0.47,2.12,2.12,3.35,6.62c2.64,9.72,8.86,56.91,20.1,57.89C224.28,402.03,224.44,402.04,224.61,402.07z"></path>
		<path class="st19" d="M189.02,353.57c0,0-5.75,1.34-2.57,18.52c3.17,17.18,11.37,35.16-2.91,42.29"></path>
		<path class="st19" d="M171.37,345.51c0,0-7.14,2.03-7.14,11.66c0,9.63,17.71,29.72,12.69,43.2"></path>
		<path class="st7" d="M214.2,379.19c0,0,28.99-1.65,48.51,14.39c19.52,16.04,10.71,49.08,5.42,49.61    c-5.29,0.53-43.87-6.96-51.54-10.49c-7.67-3.52-18.77-12.25-18.77-12.25"></path>
	</g>
	<g class="st2">
		<path class="st7" d="M388.86,309.07l-21.36,29.96l-6.05-22.25c-0.25-2.18,1.38-6.39,3.25-9.42l0.47,0.03l1.56,0.12l16.78,1.17    c0,0,0,0,0,0.01l1.59,0.1L388.86,309.07z"></path>
		<path class="st10" d="M380.74,276.91c0,0-0.21,0.09-0.59,0.27c-0.65,0.3-1.79,0.85-3.25,1.59c-5.3,2.68-14.61,8.05-18.3,14.02    c-0.22,0.36-0.42,0.7-0.59,1.05c-0.77-1.33-1.5-2.61-2.17-3.83c-3.86-6.88-6.38-12-7.91-15.28c0.01-0.07,0.01-0.13,0.03-0.19    c-0.31-0.58-0.62-1.17-0.9-1.77c-0.49-1.08-0.77-1.79-0.9-2.14c-0.03-0.06-0.06-0.12-0.07-0.18c-0.01-0.01-0.01-0.03-0.01-0.03    s-0.01-0.06-0.06-0.19c-0.15-0.43-0.52-1.56-1.01-3.06c0-0.01,0-0.03-0.01-0.06c-4.2-15.06,0.73-33.03,10.65-36.19    c0,0,4.49,0.71,10.44,11.55c4.52,8.25,10.66,23.88,13.33,30.88C380.23,275.56,380.74,276.91,380.74,276.91z"></path>
		<linearGradient id="SVGID_12_" gradientUnits="userSpaceOnUse" x1="399.4099" y1="210.7089" x2="347.5973" y2="368.2616">
			<stop offset="0" style="stop-color:#F98885"></stop>
			<stop offset="1" style="stop-color:#FFACA6"></stop>
		</linearGradient>
		<path class="st26" d="M382,287.83c-0.18,2.88-0.76,5.83-1.59,8.77c-3.52,12.34-11.35,24.25-10.84,27.84    c1.91,6.67-0.92,20.35-1.59,23.66c-0.13,0.67-0.3,1.19-0.47,1.62c-0.73,1.71-1.71,1.75-1.71,1.75s-0.25,0.53-0.79,1.28    c0,0.01,0,0.03,0,0.03c-0.4,0.59-0.98,1.32-1.69,2.02c-0.31,0.31-0.65,0.62-1.02,0.9c-0.18,0.49-0.49,0.92-0.85,1.32    c-0.27,0.3-0.58,0.58-0.89,0.82c-0.98,0.79-1.97,1.23-1.97,1.23l-0.01,0.03c-0.25,0.33-2.83,3.63-4.27,1.56    c-1.53-2.18-2.77-23.58-2.77-23.58s-3.98,7-4.76,7.06s-1.05-5.55-0.46-7.86c0.19-0.74,0.74-1.66,1.44-2.66v-0.01    c1.47-2.08,3.55-4.49,4.26-6.3c0.86-2.17,4.63-23.32,6.05-31.39c0.22-1.29,0.39-2.25,0.47-2.74v-0.01    c0.04-0.24,0.06-0.36,0.06-0.36c1.07-1.74,2.63-3.41,4.41-5c4.36-3.86,10.15-7.12,13.9-9.02c1.45-0.74,2.6-1.29,3.25-1.59    C381.73,280.43,382.22,284.06,382,287.83z"></path>
		<linearGradient id="SVGID_13_" gradientUnits="userSpaceOnUse" x1="398.1046" y1="251.802" x2="342.9441" y2="309.2535">
			<stop offset="0" style="stop-color:#FF9700"></stop>
			<stop offset="1" style="stop-color:#FFAA00"></stop>
		</linearGradient>
		<path class="st27" d="M380.74,276.91c0,0-0.21,0.09-0.59,0.27c-0.65,0.3-1.79,0.85-3.25,1.59c-5.3,2.68-14.61,8.05-18.3,14.02    c-0.22,0.36-0.42,0.7-0.59,1.05c-0.77-1.33-1.5-2.61-2.17-3.83c2.46-4.05,9.69-13.75,23.57-16.64    C380.23,275.56,380.74,276.91,380.74,276.91z"></path>
		<path class="st7" d="M382,287.83c-0.18,2.88-0.76,5.83-1.59,8.77c-0.21-5.35-2.89-7.97-8.4-7.79c-5.81,0.18-10.84,2.71-13.48,4.33    c0.04-0.24,0.06-0.36,0.06-0.36c1.07-1.74,2.63-3.41,4.41-5c4.36-3.86,10.15-7.12,13.9-9.02c1.45-0.74,2.6-1.29,3.25-1.59    C381.73,280.43,382.22,284.06,382,287.83z"></path>
		<path class="st6" d="M352.26,329.39c-1.85,3.31-4.51,4.21-4.51,4.21v-0.01c1.47-2.08,3.55-4.49,4.26-6.3    c0.86-2.17,4.63-23.32,6.05-31.39c0.43,0.34,0.79,0.86,0.96,1.63C359.73,300.66,354.11,326.08,352.26,329.39z"></path>
	</g>
</g>
</svg>